# xmcd
#
# Track frame offsets:
# 150
# 15442
# 34635
# 50162
# 63617
# 81985
# 95077
# 111885
# 126977
# 143147
# 160410
# 174930
# 186525
#
# Disc length: 2675 seconds
#
#
# Revision: 1
# Processed by: cddbd v1.5.2PL0 Copyright (c) Steve Scherf et al.
# Submitted via: FreeRIP 2.951 
#
DISCID=ba0a710d
DTITLE=Various Artist - MEMÓRIAS - Vol. 06
DYEAR=1996
DGENRE=Country
TTITLE0=Tonico e Tinoco - Pé de ipê
TTITLE1=Jacó e Jacózinho - Chico Mulato
TTITLE2=Luizinho, Limeira e Zézinha - O menino da porteira
TTITLE3=Moreno e Moreninho - Céu de Tambaú
TTITLE4=Pedro Bento e Zé da Estrada - Os Três Boiadeiros
TTITLE5=Raul Torres e Florencio - Mestre Carreiro
TTITLE6=Sulino e Marrueiro - Menino Boiadeiro
TTITLE7=Tião Carreiro e Pardinho - A Vaca já Foi pro Brejo
TTITLE8=Silveira e Silveirinha - Saudação à Madalena
TTITLE9=Vieira e Vieirinha - Resposta da Marreta
TTITLE10=Zé Carreiro e Carreirinho - Saudades de Araraquara
TTITLE11=Serrinha e Zé do Rancho - Caboclinha Malvada
TTITLE12=Zilo e Zalo - Poço verde
EXTD=
EXTT0=
EXTT1=
EXTT2=
EXTT3=
EXTT4=
EXTT5=
EXTT6=
EXTT7=
EXTT8=
EXTT9=
EXTT10=
EXTT11=
EXTT12=
PLAYORDER=
